<?xml version="1.0" encoding="UTF-8" standalone="no"?>
<!DOCTYPE svg PUBLIC "-//W3C//DTD SVG 1.1//EN" "http://www.w3.org/Graphics/SVG/1.1/DTD/svg11.dtd">
<svg width="196" height="66" viewBox="0 0 195 66" version="1.1" xmlns="http://www.w3.org/2000/svg" xmlns:xlink="http://www.w3.org/1999/xlink" xml:space="preserve" xmlns:serif="http://www.serif.com/" style="fill-rule:evenodd;clip-rule:evenodd;stroke-linejoin:round;stroke-miterlimit:2;">
    <g transform="matrix(1,0,0,1,0.06,-3)">
        <path d="M-0.06,3L-0.06,29.6L4.08,29.6L4.08,3L-0.06,3ZM4.23,3L6.82,29.6L8.22,29.6L5.64,3L4.23,3ZM10.96,3L8.38,29.6L9.78,29.6L12.37,3L10.96,3ZM12.52,3L12.52,29.6L16.7,29.6L16.7,3L12.52,3ZM28.21,3L28.21,23.48C28.21,27.05 31.44,29.83 34.9,29.83C38.36,29.83 41.59,27.05 41.59,23.48L41.59,3L37.41,3L37.41,23.33C37.41,24.77 36.12,25.8 34.9,25.8C33.68,25.8 32.39,24.77 32.39,23.33L32.39,3L28.21,3ZM54.47,3L54.47,29.6L58.65,29.6L58.65,3L54.47,3ZM58.8,3L62.75,29.6L64.2,29.6L60.25,3L58.8,3ZM64.35,3L64.35,29.6L68.53,29.6L68.53,3L64.35,3ZM82.4,28.12L82.4,29.6L93.76,29.6L93.76,28.12L90.15,28.12L90.15,4.48L93.76,4.48L93.76,3L82.4,3L82.4,4.48L85.97,4.48L85.97,28.12L82.4,28.12Z" style="fill:rgb(0,0,220);fill-rule:nonzero;"/>
        <path d="M6.21,41.5L0.47,68.1L2.6,68.1L4.39,59.7L12.14,59.7L13.96,68.1L16.09,68.1L10.43,41.5L8.38,41.5L11.8,57.8L4.73,57.8L8.22,41.5L6.21,41.5ZM28.93,41.5L28.93,68.1L30.99,68.1L30.99,56.85L34.44,56.85L40.75,68.1L43.11,68.1L36.61,56.62C39.73,56.36 42.2,53.74 42.2,50.51L42.2,47.85C42.2,44.39 39.31,41.5 35.85,41.5L28.93,41.5ZM35.66,54.91L30.99,54.91L30.99,43.4L35.66,43.4C38.09,43.4 40.18,45.38 40.18,47.88L40.18,50.28C40.18,53.01 38.21,54.91 35.66,54.91ZM60.47,43.4L60.47,68.1L62.53,68.1L62.53,43.4L69.63,43.4L69.63,41.5L53.37,41.5L53.37,43.4L60.47,43.4ZM88.1,68.33C91.75,68.33 94.67,65.74 94.67,61.98L94.67,60.35C94.67,56.02 91.03,54.53 88.52,53.96C86.2,53.43 83.58,52.56 83.58,49.44L83.58,47.66C83.58,45.19 85.71,43.25 88.1,43.25C90.46,43.25 92.62,45.19 92.62,47.66L92.62,48.61L94.67,48.61L94.67,47.62C94.67,43.97 91.75,41.27 88.1,41.27C84.45,41.27 81.53,43.97 81.53,47.62L81.53,49.44C81.53,53.89 85.29,55.29 87.61,55.83C90.04,56.36 92.62,57.23 92.62,60.39L92.62,61.94C92.62,64.41 90.49,66.35 88.14,66.35C85.74,66.35 83.58,64.41 83.58,61.94L83.58,61.07L81.53,61.07L81.53,61.98C81.53,65.74 84.45,68.33 88.1,68.33Z" style="fill:rgb(0,0,220);fill-rule:nonzero;"/>
        <path d="M111.23,3.01L111.23,13.69L114.78,13.69C118.41,13.69 120.45,11.77 120.45,8.35C120.45,4.93 118.41,3.01 114.78,3.01L111.23,3.01ZM113.42,4.9L114.75,4.9C117.05,4.9 118.17,6.04 118.17,8.35C118.17,10.66 117.05,11.8 114.75,11.8L113.42,11.8L113.42,4.9ZM124.13,4.81L124.13,3.01L122.03,3.01L122.03,4.81L124.13,4.81ZM124.13,13.69L124.13,6.07L122.03,6.07L122.03,13.69L124.13,13.69ZM128.83,5.86C126.91,5.86 125.68,7.36 125.68,9.73C125.68,12.1 126.89,13.6 128.8,13.6C129.71,13.6 130.36,13.25 130.93,12.46L130.96,12.46L130.96,13.13C130.96,14.62 130.37,15.1 129.43,15.1C128.63,15.1 128.15,14.75 128.11,14.17L126.01,14.17C126.13,15.67 127.28,16.6 129.38,16.6C131.57,16.6 133,15.52 133,13.21L133,6.07L131.02,6.07L131.02,7.09L130.99,7.09C130.4,6.22 129.75,5.86 128.83,5.86ZM129.4,7.58C130.38,7.58 131.02,8.44 131.02,9.73C131.02,11.02 130.38,11.87 129.4,11.87C128.47,11.87 127.87,11.05 127.87,9.73C127.87,8.41 128.47,7.58 129.4,7.58ZM137.14,4.81L137.14,3.01L135.04,3.01L135.04,4.81L137.14,4.81ZM137.14,13.69L137.14,6.07L135.04,6.07L135.04,13.69L137.14,13.69ZM142.59,12.11C141.88,12.11 141.6,11.78 141.6,10.94L141.6,7.63L143.06,7.63L143.06,6.07L141.6,6.07L141.6,4.09L139.5,4.09L139.5,6.07L138.28,6.07L138.28,7.63L139.5,7.63L139.5,11.32C139.5,13.09 140.27,13.79 142.03,13.79C142.38,13.79 142.85,13.73 143.13,13.64L143.13,12.04C143,12.08 142.79,12.11 142.59,12.11ZM147.51,5.83C145.34,5.83 144.29,7 144.22,8.45L146.25,8.45C146.28,7.73 146.73,7.3 147.51,7.3C148.25,7.3 148.76,7.69 148.76,8.65L148.76,8.92C148.28,8.95 147.42,9.04 146.85,9.13C144.65,9.47 143.9,10.31 143.9,11.56C143.9,12.88 144.88,13.87 146.5,13.87C147.54,13.87 148.4,13.48 148.97,12.67L149,12.67C149,13.04 149.03,13.37 149.1,13.69L151,13.69C150.86,13.18 150.78,12.56 150.78,11.6L150.78,8.84C150.78,6.85 149.67,5.83 147.51,5.83ZM148.76,10.48C148.76,11.17 148.69,11.57 148.32,11.93C148.02,12.23 147.56,12.37 147.13,12.37C146.39,12.37 146,11.98 146,11.41C146,10.79 146.36,10.51 147.23,10.36C147.68,10.28 148.31,10.22 148.76,10.19L148.76,10.48ZM154.84,13.69L154.84,3.01L152.74,3.01L152.74,13.69L154.84,13.69ZM158.97,4.81L158.97,3.01L156.88,3.01L156.88,4.81L158.97,4.81ZM158.97,13.69L158.97,6.07L156.88,6.07L156.88,13.69L158.97,13.69ZM164,5.83C161.82,5.83 160.77,7 160.7,8.45L162.74,8.45C162.77,7.73 163.22,7.3 164,7.3C164.73,7.3 165.24,7.69 165.24,8.65L165.24,8.92C164.76,8.95 163.91,9.04 163.34,9.13C161.13,9.47 160.38,10.31 160.38,11.56C160.38,12.88 161.36,13.87 162.98,13.87C164.03,13.87 164.88,13.48 165.45,12.67L165.48,12.67C165.48,13.04 165.51,13.37 165.59,13.69L167.48,13.69C167.34,13.18 167.27,12.56 167.27,11.6L167.27,8.84C167.27,6.85 166.16,5.83 164,5.83ZM165.24,10.48C165.24,11.17 165.17,11.57 164.81,11.93C164.51,12.23 164.04,12.37 163.61,12.37C162.87,12.37 162.48,11.98 162.48,11.41C162.48,10.79 162.84,10.51 163.71,10.36C164.16,10.28 164.79,10.22 165.24,10.19L165.24,10.48Z" style="fill:rgb(0,0,220);fill-rule:nonzero;"/>
        <path d="M119.64,31.69L119.64,21.01L118.25,21.01L118.25,25.54L112.81,25.54L112.81,21.01L111.42,21.01L111.42,31.69L112.81,31.69L112.81,26.75L118.25,26.75L118.25,31.69L119.64,31.69ZM125.26,30.88C124.01,30.88 123.05,30.02 122.99,28.15L128.69,28.15C128.69,27.49 128.65,26.95 128.54,26.51C128.15,24.88 126.94,23.86 125.21,23.86C122.99,23.86 121.67,25.52 121.67,27.77C121.67,30.26 123.01,31.9 125.26,31.9C127.21,31.9 128.36,30.74 128.62,29.41L127.27,29.41C127.09,30.26 126.37,30.88 125.26,30.88ZM125.21,24.88C126.38,24.88 127.25,25.66 127.39,27.14L123.01,27.14C123.14,25.69 124,24.88 125.21,24.88ZM134.02,23.99C133.04,23.99 132.28,24.4 131.77,25.24L131.74,25.24L131.74,24.07L130.47,24.07L130.47,31.69L131.8,31.69L131.8,27.8C131.8,26.13 132.61,25.19 134.05,25.19C134.21,25.19 134.41,25.22 134.57,25.24L134.57,24.05C134.41,24.01 134.18,23.99 134.02,23.99ZM137.23,25.12L137.23,21.01L135.91,21.01L135.91,31.69L137.21,31.69L137.21,30.58L137.24,30.58C137.65,31.37 138.55,31.87 139.57,31.87C141.52,31.87 142.76,30.29 142.76,27.86C142.76,25.43 141.52,23.88 139.58,23.88C138.56,23.88 137.68,24.35 137.26,25.12L137.23,25.12ZM139.24,24.94C140.54,24.94 141.38,26.08 141.38,27.86C141.38,29.65 140.54,30.8 139.24,30.8C137.98,30.8 137.17,29.68 137.17,27.86C137.17,26.06 137.98,24.94 139.24,24.94ZM147.26,23.86C145.32,23.86 144.28,24.95 144.2,26.39L145.52,26.39C145.56,25.49 146.15,24.88 147.26,24.88C148.28,24.88 148.99,25.4 148.99,26.66L148.99,26.96C148.38,27.01 147.46,27.11 146.78,27.22C144.59,27.56 143.88,28.36 143.88,29.62C143.88,30.91 144.88,31.85 146.47,31.85C147.69,31.85 148.58,31.39 149.1,30.58L149.13,30.58C149.13,30.92 149.16,31.34 149.24,31.69L150.44,31.69C150.34,31.22 150.26,30.58 150.26,29.74L150.26,26.81C150.26,24.8 149.12,23.86 147.26,23.86ZM148.99,28.43C148.99,29.33 148.84,29.75 148.37,30.23C148,30.62 147.41,30.83 146.79,30.83C145.81,30.83 145.24,30.31 145.24,29.53C145.24,28.78 145.69,28.4 146.99,28.21C147.57,28.1 148.4,28.01 148.99,27.97L148.99,28.43ZM156.05,23.99C155.08,23.99 154.31,24.4 153.8,25.24L153.77,25.24L153.77,24.07L152.51,24.07L152.51,31.69L153.83,31.69L153.83,27.8C153.83,26.13 154.64,25.19 156.08,25.19C156.25,25.19 156.44,25.22 156.6,25.24L156.6,24.05C156.44,24.01 156.22,23.99 156.05,23.99ZM159.26,22.49L159.26,21.01L157.94,21.01L157.94,22.49L159.26,22.49ZM159.26,31.69L159.26,24.07L157.94,24.07L157.94,31.69L159.26,31.69ZM164.31,23.86C162.38,23.86 161.33,24.95 161.25,26.39L162.58,26.39C162.62,25.49 163.21,24.88 164.31,24.88C165.34,24.88 166.04,25.4 166.04,26.66L166.04,26.96C165.44,27.01 164.51,27.11 163.84,27.22C161.65,27.56 160.94,28.36 160.94,29.62C160.94,30.91 161.93,31.85 163.52,31.85C164.75,31.85 165.64,31.39 166.16,30.58L166.19,30.58C166.19,30.92 166.22,31.34 166.3,31.69L167.5,31.69C167.39,31.22 167.31,30.58 167.31,29.74L167.31,26.81C167.31,24.8 166.18,23.86 164.31,23.86ZM166.04,28.43C166.04,29.33 165.89,29.75 165.43,30.23C165.05,30.62 164.47,30.83 163.85,30.83C162.86,30.83 162.29,30.31 162.29,29.53C162.29,28.78 162.74,28.4 164.05,28.21C164.63,28.1 165.46,28.01 166.04,27.97L166.04,28.43Z" style="fill:rgb(0,0,220);fill-rule:nonzero;"/>
        <path d="M122.58,49.69L122.58,39.01L120.35,39.01L118.43,44.27C117.95,45.63 117.47,47.02 117.02,48.37L116.99,48.37C116.54,47.02 116.06,45.63 115.58,44.27L113.64,39.01L111.42,39.01L111.42,49.69L112.78,49.69L112.78,44.26C112.78,42.91 112.76,41.55 112.75,40.18L112.78,40.18C113.24,41.55 113.73,42.89 114.23,44.26L116.21,49.69L117.8,49.69L119.78,44.26C120.28,42.89 120.77,41.55 121.23,40.18L121.27,40.18C121.25,41.55 121.23,42.91 121.23,44.26L121.23,49.69L122.58,49.69ZM127.9,41.86C125.96,41.86 124.91,42.95 124.84,44.39L126.16,44.39C126.2,43.49 126.79,42.88 127.9,42.88C128.91,42.88 129.62,43.41 129.62,44.66L129.62,44.96C129.02,45.01 128.09,45.11 127.42,45.22C125.23,45.56 124.52,46.36 124.52,47.62C124.52,48.91 125.51,49.85 127.1,49.85C128.33,49.85 129.22,49.39 129.74,48.58L129.77,48.58C129.77,48.92 129.8,49.34 129.88,49.69L131.08,49.69C130.97,49.22 130.9,48.58 130.9,47.74L130.9,44.81C130.9,42.8 129.75,41.86 127.9,41.86ZM129.62,46.43C129.62,47.34 129.47,47.75 129,48.23C128.63,48.63 128.05,48.84 127.43,48.84C126.44,48.84 125.87,48.31 125.87,47.53C125.87,46.78 126.32,46.41 127.63,46.21C128.21,46.1 129.03,46.02 129.62,45.97L129.62,46.43ZM136.76,41.91C135.74,41.91 134.91,42.37 134.45,43.07L134.42,43.07L134.42,42.07L133.14,42.07L133.14,49.69L134.47,49.69L134.47,45.32C134.47,43.8 135.36,42.98 136.44,42.98C137.54,42.98 138.2,43.55 138.2,45.14L138.2,49.69L139.52,49.69L139.52,45.04C139.52,42.95 138.5,41.91 136.76,41.91ZM144.31,49.85C145.32,49.85 146.16,49.39 146.63,48.68L146.66,48.68L146.66,49.69L147.94,49.69L147.94,42.07L146.62,42.07L146.62,46.43C146.62,47.96 145.7,48.77 144.63,48.77C143.54,48.77 142.88,48.2 142.88,46.61L142.88,42.07L141.56,42.07L141.56,46.72C141.56,48.8 142.56,49.85 144.31,49.85ZM152.69,41.86C151.03,41.86 149.87,42.76 149.87,44.06C149.87,45.73 151.18,45.98 152.45,46.3C153.92,46.66 154.55,46.82 154.55,47.71C154.55,48.4 153.89,48.85 152.9,48.85C151.72,48.85 151.03,48.25 151.03,47.16L149.69,47.16C149.71,48.94 150.89,49.9 152.89,49.9C154.73,49.9 155.9,48.98 155.9,47.62C155.9,45.85 154.42,45.53 153.02,45.19C151.75,44.89 151.19,44.75 151.19,43.96C151.19,43.3 151.76,42.88 152.68,42.88C153.74,42.88 154.37,43.43 154.37,44.45L155.66,44.45C155.66,42.77 154.55,41.86 152.69,41.86ZM160.81,41.86C158.6,41.86 157.22,43.41 157.22,45.88C157.22,48.35 158.6,49.9 160.81,49.9C162.67,49.9 163.91,48.63 164.06,46.88L162.68,46.88C162.59,47.98 161.84,48.82 160.79,48.82C159.44,48.82 158.62,47.71 158.62,45.88C158.62,44.06 159.44,42.94 160.79,42.94C161.84,42.94 162.59,43.69 162.68,44.77L164.06,44.77C163.91,43.06 162.64,41.86 160.81,41.86ZM169.33,41.99C168.35,41.99 167.59,42.4 167.08,43.24L167.05,43.24L167.05,42.07L165.78,42.07L165.78,49.69L167.11,49.69L167.11,45.8C167.11,44.13 167.92,43.2 169.36,43.2C169.52,43.2 169.72,43.22 169.88,43.24L169.88,42.05C169.72,42.01 169.49,41.99 169.33,41.99ZM172.54,40.49L172.54,39.01L171.22,39.01L171.22,40.49L172.54,40.49ZM172.54,49.69L172.54,42.07L171.22,42.07L171.22,49.69L172.54,49.69ZM178.54,41.88C177.52,41.88 176.62,42.37 176.21,43.16L176.18,43.16L176.18,42.07L174.88,42.07L174.88,52.46L176.2,52.46L176.2,48.61L176.23,48.61C176.65,49.38 177.53,49.87 178.55,49.87C180.49,49.87 181.73,48.29 181.73,45.86C181.73,43.43 180.49,41.88 178.54,41.88ZM178.21,42.94C179.51,42.94 180.35,44.08 180.35,45.86C180.35,47.65 179.51,48.8 178.21,48.8C176.95,48.8 176.14,47.68 176.14,45.86C176.14,44.06 176.95,42.94 178.21,42.94ZM186.2,48.66C185.44,48.66 185.15,48.29 185.15,47.42L185.15,43.12L186.67,43.12L186.67,42.07L185.15,42.07L185.15,40.22L183.83,40.22L183.83,42.07L182.51,42.07L182.51,43.12L183.83,43.12L183.83,47.56C183.83,49.13 184.45,49.75 185.9,49.75C186.17,49.75 186.52,49.72 186.74,49.66L186.74,48.58C186.61,48.63 186.4,48.66 186.2,48.66ZM191.03,41.86C189.1,41.86 188.05,42.95 187.97,44.39L189.29,44.39C189.34,43.49 189.92,42.88 191.03,42.88C192.05,42.88 192.76,43.41 192.76,44.66L192.76,44.96C192.16,45.01 191.23,45.11 190.55,45.22C188.36,45.56 187.66,46.36 187.66,47.62C187.66,48.91 188.65,49.85 190.24,49.85C191.47,49.85 192.35,49.39 192.88,48.58L192.91,48.58C192.91,48.92 192.94,49.34 193.01,49.69L194.21,49.69C194.11,49.22 194.03,48.58 194.03,47.74L194.03,44.81C194.03,42.8 192.89,41.86 191.03,41.86ZM192.76,46.43C192.76,47.34 192.61,47.75 192.14,48.23C191.77,48.63 191.18,48.84 190.57,48.84C189.58,48.84 189.01,48.31 189.01,47.53C189.01,46.78 189.46,46.41 190.76,46.21C191.35,46.1 192.17,46.02 192.76,45.97L192.76,46.43Z" style="fill:rgb(0,0,220);fill-rule:nonzero;"/>
    </g>
</svg>
